#!OML:ASF H:\Martial Arts Walks\Project 1\Capture day 1\Session 1\male.ASF
:FULLY-SPECIFIED
:DEGREES
2439
root -0.541577 11.7685 -25.2024 364.179 -9.45246 -0.234961
lowerback 19.7739 -1.03708 -7.14564
upperback -1.78088 -2.89624 1.69535
thorax -12.734 -0.758185 6.87496
lowerneck -5.79091 4.01189 0.58183
upperneck 3.96094 5.24424 1.24311
head 2.21831 2.65693 0.485737
rclavicle -2.25372e-014 1.19271e-014
rhumerus -78.4408 16.5046 -97.7384
rradius 114.238
rwrist -67.1497
rhand -17.6064 -35.4106
rfingers 7.12502
rthumb 8.65014 -65.2134
lclavicle -2.25372e-014 1.19271e-014
lhumerus 62.0091 13.4252 116.087
lradius 6.82887
lwrist -90.8391
lhand -31.5346 751.488
lfingers 7.12502
lthumb -4.79935 -298.587
rfemur -64.4987 -17.1829 0.976456
rtibia 99.6211
rfoot -39.7536 -15.8568
rtoes -50.7867
lfemur -54.9551 41.1647 -4.48587
ltibia 103.414
lfoot -35.737 13.4065
ltoes -19.3284
2440
root -0.544039 11.7619 -25.2068 364.167 -9.42366 -0.22713
lowerback 19.8562 -1.03391 -7.13587
upperback -1.75086 -2.89825 1.66669
thorax -12.7484 -0.760937 6.84088
lowerneck -5.74481 3.96745 0.687932
upperneck 3.74858 5.18453 1.13212
head 2.14599 2.62486 0.425938
rclavicle 4.57205e-015 -4.57205e-015
rhumerus -78.3749 16.383 -97.6708
rradius 114.157
rwrist -67.0869
rhand -16.7968 -34.5886
rfingers 7.12502
rthumb 9.43144 -64.3575
lclavicle 4.57205e-015 -4.57205e-015
lhumerus 61.9887 13.1181 115.683
lradius 6.7259
lwrist -90.5038
lhand -31.5374 751.65
lfingers 7.12502
lthumb -4.8021 -298.424
rfemur -64.5276 -17.1976 0.967283
rtibia 99.7015
rfoot -39.7731 -15.8957
rtoes -50.8156
lfemur -55.0035 41.0998 -4.48453
ltibia 103.475
lfoot -35.7254 13.4625
ltoes -19.3806
2441
root -0.54702 11.7537 -25.2104 364.241 -9.38274 -0.242637
lowerback 19.8559 -1.06337 -7.14864
upperback -1.76234 -2.93825 1.688
thorax -12.7532 -0.77697 6.88462
lowerneck -5.80403 4.0169 0.606118
upperneck 3.85661 5.253 1.181
head 2.18857 2.65958 0.460908
rclavicle -6.25675e-014 -1.17283e-014
rhumerus -78.374 16.3878 -97.5653
rradius 114.056
rwrist -67.0339
rhand -16.0391 -33.9455
rfingers 7.12502
rthumb 10.1625 -63.6801
lclavicle -6.25675e-014 -1.17283e-014
lhumerus 61.9296 12.9063 115.306
lradius 6.72314
lwrist -90.0919
lhand -31.488 751.781
lfingers 7.12502
lthumb -4.75436 -298.293
rfemur -64.659 -17.2233 1.00261
rtibia 99.7985
rfoot -39.843 -15.7139
rtoes -50.8134
lfemur -55.1859 41.0317 -4.51836
ltibia 103.557
lfoot -35.7145 13.5157
ltoes -19.4977
2442
root -0.549512 11.7482 -25.2127 364.228 -9.26796 -0.224314
lowerback 19.9232 -1.11018 -7.16899
upperback -1.73678 -3.00883 1.69327
thorax -12.7493 -0.808788 6.9257
lowerneck -5.79814 4.02682 0.583226
upperneck 3.82279 5.26997 1.15115
head 2.17644 2.66673 0.455213
rclavicle 1.84124e-014 2.44505e-014
rhumerus -78.3149 16.3864 -97.4297
rradius 113.926
rwrist -66.9359
rhand -15.1143 -33.504
rfingers 7.12502
rthumb 11.0545 -63.1928
lclavicle 1.84124e-014 2.44505e-014
lhumerus 61.8993 12.691 114.918
lradius 6.69916
lwrist -89.4775
lhand -31.4953 751.808
lfingers 7.12502
lthumb -4.7614 -298.265
rfemur -64.6363 -17.3205 0.979106
rtibia 99.883
rfoot -39.9103 -15.7117
rtoes -50.8195
lfemur -55.258 40.8757 -4.5426
ltibia 103.608
lfoot -35.7037 13.5464
ltoes -19.5513
2443
root -0.553153 11.7366 -25.2176 364.309 -9.45051 -0.241459
lowerback 19.8758 -1.0478 -7.20739
upperback -1.73529 -2.93372 1.67672
thorax -12.7321 -0.773172 6.90425
lowerneck -5.74428 4.01613 0.5589
upperneck 3.76737 5.25779 1.16848
head 2.14719 2.66054 0.461875
rclavicle 7.30534e-015 1.76918e-014
rhumerus -78.2504 16.3652 -97.325
rradius 113.772
rwrist -67.0498
rhand -14.3167 -32.9141
rfingers 7.12502
rthumb 11.8237 -62.5603
lclavicle 7.30534e-015 1.76918e-014
lhumerus 61.8574 12.413 114.51
lradius 6.64796
lwrist -88.7003
lhand -31.503 751.807
lfingers 7.12502
lthumb -4.76888 -298.267
rfemur -64.9231 -17.1353 1.04573
rtibia 99.9804
rfoot -39.7862 -15.7611
rtoes -50.7864
lfemur -55.361 41.0897 -4.51873
ltibia 103.701
lfoot -35.6843 13.6027
ltoes -19.7076
2444
root -0.557825 11.7249 -25.2218 364.402 -9.60412 -0.253854
lowerback 19.8201 -0.998736 -7.27543
upperback -1.73235 -2.88066 1.6771
thorax -12.7026 -0.745675 6.92506
lowerneck -5.75318 4.02944 0.561165
upperneck 3.7477 5.27711 1.13581
head 2.14322 2.66923 0.451811
rclavicle 2.02512e-014 -1.98785e-015
rhumerus -78.1055 16.4132 -97.1637
rradius 113.565
rwrist -67.1305
rhand -13.7205 -32.5989
rfingers 7.12502
rthumb 12.3986 -62.2112
lclavicle 2.02512e-014 -1.98785e-015
lhumerus 61.7874 12.1487 114.12
lradius 6.69842
lwrist -87.8256
lhand -31.5153 751.854
lfingers 7.12502
lthumb -4.78076 -298.22
rfemur -65.2052 -16.9822 1.11006
rtibia 100.082
rfoot -39.7278 -15.7331
rtoes -50.7761
lfemur -55.4856 41.2928 -4.49637
ltibia 103.795
lfoot -35.7091 13.5203
ltoes -19.7393
2445
root -0.560535 11.7181 -25.2243 364.412 -9.4845 -0.283924
lowerback 19.8484 -1.04495 -7.21649
upperback -1.68762 -2.92858 1.67388
thorax -12.6613 -0.775942 6.90082
lowerneck -5.79915 4.05249 0.612716
upperneck 3.73572 5.30744 1.05585
head 2.15126 2.68288 0.420176
rclavicle -6.8705e-014 -5.36719e-015
rhumerus -77.8813 16.4619 -96.9616
rradius 113.348
rwrist -67.0771
rhand -13.1159 -32.5182
rfingers 7.12502
rthumb 12.9815 -62.0943
lclavicle -6.8705e-014 -5.36719e-015
lhumerus 61.7139 11.8466 113.739
lradius 6.82257
lwrist -86.9698
lhand -31.522 751.86
lfingers 7.12502
lthumb -4.78718 -298.214
rfemur -65.1994 -17.0813 1.14101
rtibia 100.162
rfoot -39.7669 -15.7745
rtoes -50.7698
lfemur -55.6001 41.1871 -4.4742
ltibia 103.864
lfoot -35.7059 13.5078
ltoes -19.8076
2446
root -0.562124 11.7144 -25.2253 364.344 -9.27295 -0.296154
lowerback 19.9606 -1.13457 -7.13436
upperback -1.63981 -3.03548 1.66421
thorax -12.6565 -0.833163 6.87794
lowerneck -5.74153 4.10956 0.691464
upperneck 3.66971 5.38447 0.936617
head 2.12449 2.71879 0.369704
rclavicle 6.28657e-014 -1.39149e-014
rhumerus -77.6694 16.5704 -96.7859
rradius 113.138
rwrist -66.999
rhand -12.7368 -32.3572
rfingers 7.12502
rthumb 13.3469 -61.9098
lclavicle 6.28657e-014 -1.39149e-014
lhumerus 61.6897 11.6231 113.324
lradius 6.85074
lwrist -86.1934
lhand -31.5019 751.961
lfingers 7.12502
lthumb -4.7678 -298.113
rfemur -65.0328 -17.2737 1.12162
rtibia 100.223
rfoot -39.8518 -15.7411
rtoes -50.7635
lfemur -55.6384 40.9584 -4.44947
ltibia 103.904
lfoot -35.6911 13.5261
ltoes -19.92
2447
root -0.566015 11.7017 -25.2303 364.456 -9.44622 -0.315535
lowerback 19.8819 -1.07498 -7.18461
upperback -1.63615 -2.96238 1.66498
thorax -12.6168 -0.798334 6.88165
lowerneck -5.74303 4.17724 0.710809
upperneck 3.67194 5.47592 0.883409
head 2.12745 2.76315 0.353146
rclavicle -3.0911e-014 9.14409e-015
rhumerus -77.5806 16.7956 -97.0109
rradius 113.694
rwrist -69.9344
rhand -20.5389 -37.8515
rfingers 7.12502
rthumb 5.81952 -67.7516
lclavicle -3.0911e-014 9.14409e-015
lhumerus 61.6389 11.3806 112.927
lradius 6.91482
lwrist -85.4366
lhand -31.4296 752.006
lfingers 7.12502
lthumb -4.69798 -298.066
rfemur -65.3541 -17.1304 1.1925
rtibia 100.32
rfoot -39.7979 -15.6628
rtoes -50.7384
lfemur -55.8027 41.2018 -4.4459
ltibia 104
lfoot -35.6855 13.4764
ltoes -20.0274
2448
root -0.567968 11.6957 -25.2324 364.4 -9.40416 -0.318411
lowerback 19.9773 -1.07097 -7.15336
upperback -1.59392 -2.957 1.64854
thorax -12.6261 -0.799209 6.84736
lowerneck -5.71246 4.22522 0.795974
upperneck 3.6202 5.53957 0.769832
head 2.11073 2.79276 0.303935
rclavicle 4.94974e-014 -6.36111e-015
rhumerus -77.2022 16.8952 -96.7569
rradius 113.517
rwrist -70.2156
rhand -21.854 -38.5261
rfingers 7.12502
rthumb 4.54978 -68.4573
lclavicle 4.94974e-014 -6.36111e-015
lhumerus 61.5834 11.118 112.533
lradius 6.91464
lwrist -84.6269
lhand -31.5166 752.207
lfingers 7.12502
lthumb -4.78197 -297.867
rfemur -65.3079 -17.1705 1.18262
rtibia 100.382
rfoot -39.7492 -15.8103
rtoes -50.7279
lfemur -55.7818 41.1692 -4.38943
ltibia 104.051
lfoot -35.6831 13.4713
ltoes -20.1054
2449
root -0.57114 11.6926 -25.2315 364.373 -9.00258 -0.299721
lowerback 20.0146 -1.21108 -7.03501
upperback -1.55522 -3.11668 1.63938
thorax -12.5815 -0.885642 6.81509
lowerneck -5.68328 4.33426 0.784276
upperneck 3.64057 5.68887 0.717728
head 2.11329 2.86555 0.294483
rclavicle -2.25124e-014 -2.0276e-014
rhumerus -76.753 17.0108 -96.384
rradius 113.32
rwrist -70.3953
rhand -23.4365 -39.7437
rfingers 7.12502
rthumb 3.02161 -69.7021
lclavicle -2.25124e-014 -2.0276e-014
lhumerus 61.512 10.9028 112.13
lradius 6.98608
lwrist -83.654
lhand -31.3699 752.241
lfingers 7.12502
lthumb -4.64031 -297.83
rfemur -65.0909 -17.61 1.13946
rtibia 100.452
rfoot -39.8552 -15.9242
rtoes -50.7248
lfemur -55.9802 40.7699 -4.48827
ltibia 104.083
lfoot -35.6318 13.5216
ltoes -20.3178
